<?xml version="1.0" encoding="UTF-8"?>
<svg width="24px" height="24px" viewBox="0 0 24 24" version="1.1" xmlns="http://www.w3.org/2000/svg" xmlns:xlink="http://www.w3.org/1999/xlink">
    <!-- Generator: Sketch 53.2 (72643) - https://sketchapp.com -->
    <title>Icon/Download</title>
    <desc>Created with Sketch.</desc>
    <g id="Icon/Download" stroke="none" stroke-width="1" fill="none" fill-rule="evenodd">
        <path d="M12,22 C6.4771525,22 2,17.5228475 2,12 C2,6.4771525 6.4771525,2 12,2 C17.5228475,2 22,6.4771525 22,12 C22,17.5228475 17.5228475,22 12,22 Z M12,20.5 C16.6944204,20.5 20.5,16.6944204 20.5,12 C20.5,7.30557963 16.6944204,3.5 12,3.5 C7.30557963,3.5 3.5,7.30557963 3.5,12 C3.5,16.6944204 7.30557963,20.5 12,20.5 Z M18.6666667,12 L12,18.6666667 L5.33333333,12 L6.51666667,10.8166667 L11.1666667,15.475 L11.1666667,5.33333333 L12.8333333,5.33333333 L12.8333333,15.475 L17.4916667,10.825 L18.6666667,12 Z" id="Combined-Shape" fill="#000000"></path>
    </g>
</svg>