<svg class="ucla-icon facebook" width="24" height="24" viewBox="0 0 24 24" aria-labelledby="icon-facebook" role="img"><title id="icon-facebook">Icon Social Facebook</title><g fill="none" fill-rule="evenodd"><path d="M15.04 20v-6.196h2.08l.31-2.415h-2.39V9.848c0-.7.194-1.176 1.196-1.176h1.28v-2.16c-.222-.03-.981-.095-1.864-.095-1.844 0-3.106 1.125-3.106 3.191v1.781h-2.085v2.415h2.085V20h2.494zM4.883 20A.883.883 0 0 1 4 19.117V4.883C4 4.395 4.395 4 4.883 4h14.234c.488 0 .883.395.883.883v14.234a.883.883 0 0 1-.883.883H4.883z" id="Shape" fill="#000"/></g></svg>