<?xml version="1.0" encoding="UTF-8"?>
<svg width="24px" height="24px" viewBox="0 0 24 24" version="1.1" xmlns="http://www.w3.org/2000/svg" xmlns:xlink="http://www.w3.org/1999/xlink">
    <!-- Generator: Sketch 53.2 (72643) - https://sketchapp.com -->
    <title>Icon/Social/Facebook</title>
    <desc>Created with Sketch.</desc>
    <g id="Icon/Social/Facebook" stroke="none" stroke-width="1" fill="none" fill-rule="evenodd">
        <path d="M15.0396667,20 L15.0396667,13.804 L17.1195,13.804 L17.4308333,11.3891667 L15.0396667,11.3891667 L15.0396667,9.8475 C15.0396667,9.14833333 15.2338333,8.672 16.2363333,8.672 L17.5151667,8.67133333 L17.5151667,6.51166667 C17.2938333,6.48233333 16.5348333,6.4165 15.6518333,6.4165 C13.8081667,6.4165 12.5461667,7.54183333 12.5461667,9.60833333 L12.5461667,11.3891667 L10.461,11.3891667 L10.461,13.804 L12.5461667,13.804 L12.5461667,20 L15.0396667,20 Z M4.883,20 C4.39516667,20 4,19.6045 4,19.117 L4,4.883 C4,4.39516667 4.39516667,4 4.883,4 L19.1168333,4 C19.6045,4 20,4.39516667 20,4.883 L20,19.117 C20,19.6045 19.6045,20 19.1168333,20 L4.883,20 Z" id="Shape" fill="#000000"></path>
    </g>
</svg>