<svg class="ucla-icon fog" width="24" height="24" viewBox="0 0 24 24" aria-labelledby="icon-fog" role="img"><title id="icon-fog">Icon Weather/Fog</title><g fill="none" fill-rule="evenodd"><path d="M0 16.258c0-.193.097-.484.194-.58.096-.097.387-.194.58-.194h18.097c.194 0 .484.097.58.193.097.097.29.388.29.581 0 .194-.096.387-.193.58-.193.194-.387.194-.58.194H.87c-.194 0-.484-.097-.58-.193-.194-.097-.291-.29-.291-.58zm2.516-3c0-.193.097-.387.29-.58.194-.097.29-.194.581-.194h18.097c.193 0 .387.097.58.193.194.097.194.388.194.581 0 .194-.097.387-.193.58-.194.194-.388.194-.581.194H3.387c-.193 0-.387-.097-.58-.193-.194-.194-.29-.387-.29-.58zm.194-2.323c0 .097.096.097.193.097h1.355c.097 0 .097-.097.194-.193.193-.484.58-.871 1.064-1.258C6 9.29 6.484 9.097 7.065 9l.58-.097a.208.208 0 0 0 .194-.193l.096-.484c.097-1.065.581-1.936 1.355-2.613.775-.678 1.742-1.065 2.71-1.065 1.065 0 1.935.387 2.71 1.065.774.677 1.258 1.548 1.355 2.613l.096.58c0 .097.097.194.194.194h1.548c.58 0 1.162.194 1.742.484.58.29.871.774 1.161 1.355.097.096.097.193.194.193h1.355c.097 0 .193-.097.097-.193-.29-.968-.871-1.839-1.646-2.42-.87-.58-1.838-.967-2.903-.967h-.29c-.29-1.258-.968-2.323-2.032-3.194C14.516 3.388 13.355 3 12.097 3c-1.355 0-2.516.387-3.58 1.258-1.065.871-1.743 1.936-2.033 3.29a4.182 4.182 0 0 0-2.13 1.162c-.58.58-1.45 1.355-1.644 2.225 0-.096 0 0 0 0zm1.548 8.323c0-.193.097-.387.29-.58.194-.097.29-.194.581-.194h18.097c.193 0 .387.097.58.193.194.194.194.388.194.581 0 .194-.097.387-.194.58-.096.194-.387.291-.677.291H5.032c-.193 0-.387-.097-.58-.29-.097-.194-.194-.387-.194-.58z" id="Shape" fill="#000"/></g></svg>