<svg class="ucla-icon instagram" width="24" height="24" viewBox="0 0 24 24" aria-labelledby="icon-instagram" role="img"><title id="icon-instagram">Icon Social Instagram</title><g fill="none" fill-rule="evenodd"><path d="M12 4c2.173 0 2.445.01 3.298.048.852.039 1.433.174 1.942.372.526.204.972.478 1.417.923.445.445.719.89.923 1.417.198.509.333 1.09.372 1.942C19.99 9.555 20 9.827 20 12s-.01 2.445-.048 3.298c-.039.852-.174 1.433-.372 1.942a3.92 3.92 0 0 1-.923 1.417c-.445.445-.89.719-1.417.923-.509.198-1.09.333-1.942.372-.853.039-1.125.048-3.298.048s-2.445-.01-3.298-.048c-.852-.039-1.433-.174-1.942-.372a3.921 3.921 0 0 1-1.417-.923 3.92 3.92 0 0 1-.923-1.417c-.198-.509-.333-1.09-.372-1.942C4.01 14.445 4 14.173 4 12s.01-2.445.048-3.298c.039-.852.174-1.433.372-1.942a3.92 3.92 0 0 1 .923-1.417c.445-.445.89-.719 1.417-.923.509-.198 1.09-.333 1.942-.372C9.555 4.01 9.827 4 12 4zm0 1.441c-2.136 0-2.39.009-3.233.047-.78.036-1.203.166-1.485.276-.374.145-.64.318-.92.598a2.48 2.48 0 0 0-.598.92c-.11.282-.24.705-.276 1.485-.038.844-.047 1.097-.047 3.233s.009 2.39.047 3.233c.036.78.166 1.203.276 1.485.145.374.318.64.598.92.28.28.546.453.92.598.282.11.705.24 1.485.276.844.038 1.097.047 3.233.047s2.39-.009 3.233-.047c.78-.036 1.203-.166 1.485-.276.374-.145.64-.318.92-.598.28-.28.453-.546.598-.92.11-.282.24-.705.276-1.485.038-.844.047-1.097.047-3.233s-.009-2.39-.047-3.233c-.036-.78-.166-1.203-.276-1.485a2.48 2.48 0 0 0-.598-.92 2.479 2.479 0 0 0-.92-.598c-.282-.11-.705-.24-1.485-.276-.844-.038-1.097-.047-3.233-.047zm0 9.226a2.667 2.667 0 1 0 0-5.334 2.667 2.667 0 0 0 0 5.334zm0-6.775a4.108 4.108 0 1 1 0 8.216 4.108 4.108 0 0 1 0-8.216zm5.23-.162a.96.96 0 1 1-1.92 0 .96.96 0 0 1 1.92 0z" id="Shape" fill="#000"/></g></svg>