<svg class="ucla-icon light-rain" width="24" height="24" viewBox="0 0 24 24" aria-labelledby="icon-light-rain" role="img"><title id="icon-light-rain">Icon Weather/Light Rain</title><g fill="none" fill-rule="evenodd"><path d="M2 13.5c0-1.1.4-2.2 1.1-3.1.7-.9 1.6-1.5 2.7-1.7.3-1.4 1-2.5 2.1-3.4C9 4.4 10.3 4 11.7 4s2.6.4 3.7 1.3 1.8 1.9 2.1 3.3h.3c.9 0 1.7.2 2.5.6.8.4 1.4 1 1.8 1.8.4.8.7 1.6.7 2.5 0 1.3-.5 2.5-1.4 3.5-.9 1-2 1.5-3.4 1.5-.1 0-.2-.1-.2-.2V17c0-.1.1-.2.2-.2.9 0 1.6-.4 2.2-1 .6-.6.9-1.4.9-2.3 0-.9-.3-1.6-1-2.3-.6-.6-1.4-1-2.3-1h-1.6c-.1 0-.2-.1-.2-.2l-.1-.6c-.1-1.1-.6-2-1.4-2.7-.8-.7-1.8-1.1-2.9-1.1-1.1 0-2.1.4-2.9 1.1-.8.7-1.3 1.6-1.4 2.7l.1.7c0 .1-.1.2-.2.2h-.5c-.8 0-1.5.4-2.1 1-.6.6-.9 1.3-.9 2.2 0 .9.3 1.6.9 2.3.6.7 1.3 1 2.2 1 .1 0 .2.1.2.2v1.3c0 .1-.1.2-.2.2-1.3-.1-2.5-.6-3.4-1.5-.9-.9-1.4-2.2-1.4-3.5zm6 .9c0-.2.1-.6.4-1 .2-.4.5-.8.7-1 .2-.2.3-.4.4-.4l.4.4c.3.3.5.6.7 1 .2.4.3.7.3 1 0 .4-.1.7-.4 1-.3.3-.6.4-1 .4s-.7-.1-1-.4c-.4-.3-.5-.6-.5-1zm3 4c0-.3.1-.6.2-1s.4-.7.6-1c.2-.3.4-.5.7-.8l.6-.6.2-.2.2.2c.4.3.8.8 1.3 1.5.2.3.4.7.6 1 .2.3.2.7.2 1 0 .6-.2 1.2-.7 1.6-.5.4-1 .7-1.7.7-.6 0-1.2-.2-1.6-.7-.4-.5-.6-1.1-.6-1.7zm1.4-6.7c0-.4.3-.9 1-1.6l.2.2c.2.2.3.4.5.7.1.3.2.5.2.6 0 .3-.1.5-.3.7-.2.2-.4.3-.7.3-.3 0-.5-.1-.7-.3-.1-.1-.2-.3-.2-.6z" id="Shape" fill="#000"/></g></svg>