<svg class="ucla-icon linkedin" width="24" height="24" viewBox="0 0 24 24" aria-labelledby="icon-linkedin" role="img"><title id="icon-linkedin">Icon Social LinkedIn</title><g fill="none" fill-rule="evenodd"><path d="M10.486 16.776H12.5v-3.21c0-.846.16-1.667 1.21-1.667 1.035 0 1.048.969 1.048 1.721v3.156h2.017v-3.559c0-1.748-.377-3.092-2.42-3.092-.98 0-1.639.538-1.908 1.049h-.027v-.888h-1.934v6.49zM8.21 7.06A1.17 1.17 0 1 0 8.21 9.4a1.17 1.17 0 0 0 .002-2.339zm-1.01 9.716h2.02v-6.49H7.2v6.49zM4.883 20A.883.883 0 0 1 4 19.117V4.883C4 4.395 4.395 4 4.883 4h14.234c.488 0 .883.395.883.883v14.234a.883.883 0 0 1-.883.883H4.883z" id="Shape" fill="#000"/></g></svg>