<svg class="ucla-icon moon" width="24" height="24" viewBox="0 0 24 24" aria-labelledby="icon-moon" role="img"><title id="icon-moon">Icon Weather/Moon</title><g fill="none" fill-rule="evenodd"><path d="M5 12.2c0-1 .2-1.9.6-2.8.4-.9.9-1.6 1.5-2.3.6-.7 1.4-1.1 2.3-1.5.9-.4 1.8-.6 2.8-.6h1.1c.2 0 .2.1.2.3v.9c0 1.3.5 2.4 1.4 3.2.9.9 1.9 1.4 3.2 1.4l.8.1c.2 0 .2.1.2.2v1c0 1.3-.3 2.5-.9 3.6-.6 1.1-1.5 2-2.6 2.6-1.1.6-2.3 1-3.6 1-1 0-1.9-.2-2.8-.6-.9-.4-1.6-.9-2.3-1.5-.6-.6-1.1-1.4-1.5-2.3-.2-.8-.4-1.8-.4-2.7zm1.8 0c0 .8.1 1.5.4 2.2.3.7.7 1.2 1.2 1.7s1.1.8 1.7 1.1c.6.3 1.3.4 1.9.4.6 0 1.2-.1 1.8-.3.6-.2 1.1-.5 1.6-1s.9-.9 1.3-1.6c.4-.6.6-1.3.7-2.1-1.6-.3-2.9-1-3.9-2.1s-1.4-2.3-1.6-3.8c-1 .1-1.8.3-2.6.9-.8.5-1.4 1.2-1.8 2-.4.8-.7 1.7-.7 2.6z" id="Shape" fill="#000"/></g></svg>