<?xml version="1.0" encoding="UTF-8"?>
<svg width="24px" height="24px" viewBox="0 0 24 24" version="1.1" xmlns="http://www.w3.org/2000/svg" xmlns:xlink="http://www.w3.org/1999/xlink">
    <!-- Generator: Sketch 53.2 (72643) - https://sketchapp.com -->
    <title>Icon/Weather/Overcast</title>
    <desc>Created with Sketch.</desc>
    <g id="Icon/Weather/Overcast" stroke="none" stroke-width="1" fill="none" fill-rule="evenodd">
        <path d="M0.9,15.6 C0.9,14.6 1.2,13.7 1.8,13 C2.4,12.3 3.2,11.7 4.2,11.5 C4.5,10.3 5,9.4 6,8.6 C6.9,7.8 8,7.5 9.2,7.5 C10.4,7.5 11.4,7.9 12.4,8.6 C13.3,9.3 13.9,10.3 14.2,11.4 L14.5,11.4 C15.7,11.4 16.7,11.8 17.5,12.6 C18.3,13.4 18.7,14.4 18.7,15.6 C18.7,16.8 18.3,17.8 17.5,18.6 C16.7,19.4 15.7,19.8 14.5,19.8 L5.2,19.8 C4.6,19.8 4.1,19.7 3.5,19.5 C2.9,19.3 2.5,19 2.1,18.6 C1.7,18.2 1.4,17.8 1.2,17.2 C1,16.6 0.9,16.2 0.9,15.6 Z M2.3,15.6 C2.3,16.4 2.6,17 3.1,17.6 C3.6,18.2 4.3,18.4 5.1,18.4 L14.4,18.4 C15.2,18.4 15.8,18.1 16.4,17.6 C17,17.1 17.2,16.4 17.2,15.6 C17.2,14.8 16.9,14.2 16.4,13.6 C15.9,13.1 15.2,12.8 14.4,12.8 L13,12.8 C12.9,12.8 12.9,12.7 12.9,12.7 L12.8,12.2 C12.7,11.3 12.3,10.5 11.6,9.9 C10.9,9.3 10.1,9 9.2,9 C8.3,9 7.4,9.3 6.7,9.9 C6,10.5 5.6,11.3 5.5,12.2 L5.4,12.6 C5.4,12.7 5.3,12.7 5.2,12.7 L4.8,12.8 C4.1,12.9 3.5,13.2 3,13.7 C2.6,14.2 2.3,14.9 2.3,15.6 Z M11.2,6.9 C11.1,7 11.1,7 11.3,7.1 C11.7,7.3 12.1,7.5 12.4,7.7 C12.5,7.7 12.6,7.7 12.6,7.7 C13.2,7.1 13.9,6.8 14.7,6.8 C15.5,6.8 16.2,7.1 16.8,7.6 C17.4,8.1 17.7,8.8 17.8,9.6 L17.9,10.2 L19.3,10.2 C19.9,10.2 20.5,10.4 21,10.9 C21.5,11.4 21.7,11.9 21.7,12.6 C21.7,13.2 21.5,13.7 21.1,14.2 C20.7,14.7 20.2,14.9 19.6,15 C19.5,15 19.5,15 19.5,15.2 L19.5,16.3 C19.5,16.4 19.5,16.5 19.6,16.5 C20.6,16.4 21.5,16 22.1,15.3 C22.7,14.6 23.1,13.7 23.1,12.7 C23.1,11.6 22.7,10.7 22,10 C21.2,9.2 20.4,8.9 19.3,8.9 L19.2,8.9 C18.9,7.9 18.4,7.1 17.6,6.4 C16.8,5.7 15.8,5.4 14.8,5.4 C13.3,5.3 12.1,5.8 11.2,6.9 Z" id="Shape" fill="#000000"></path>
    </g>
</svg>