<svg class="ucla-icon overcast" width="24" height="24" viewBox="0 0 24 24" aria-labelledby="icon-overcast" role="img"><title id="icon-overcast">Icon Weather/Overcast</title><g fill="none" fill-rule="evenodd"><path d="M.9 15.6c0-1 .3-1.9.9-2.6.6-.7 1.4-1.3 2.4-1.5.3-1.2.8-2.1 1.8-2.9.9-.8 2-1.1 3.2-1.1 1.2 0 2.2.4 3.2 1.1.9.7 1.5 1.7 1.8 2.8h.3c1.2 0 2.2.4 3 1.2.8.8 1.2 1.8 1.2 3s-.4 2.2-1.2 3c-.8.8-1.8 1.2-3 1.2H5.2c-.6 0-1.1-.1-1.7-.3-.6-.2-1-.5-1.4-.9-.4-.4-.7-.8-.9-1.4-.2-.6-.3-1-.3-1.6zm1.4 0c0 .8.3 1.4.8 2 .5.6 1.2.8 2 .8h9.3c.8 0 1.4-.3 2-.8.6-.5.8-1.2.8-2s-.3-1.4-.8-2c-.5-.5-1.2-.8-2-.8H13c-.1 0-.1-.1-.1-.1l-.1-.5c-.1-.9-.5-1.7-1.2-2.3-.7-.6-1.5-.9-2.4-.9-.9 0-1.8.3-2.5.9-.7.6-1.1 1.4-1.2 2.3l-.1.4c0 .1-.1.1-.2.1l-.4.1c-.7.1-1.3.4-1.8.9-.4.5-.7 1.2-.7 1.9zm8.9-8.7c-.1.1-.1.1.1.2.4.2.8.4 1.1.6h.2c.6-.6 1.3-.9 2.1-.9s1.5.3 2.1.8c.6.5.9 1.2 1 2l.1.6h1.4c.6 0 1.2.2 1.7.7.5.5.7 1 .7 1.7 0 .6-.2 1.1-.6 1.6-.4.5-.9.7-1.5.8-.1 0-.1 0-.1.2v1.1c0 .1 0 .2.1.2 1-.1 1.9-.5 2.5-1.2.6-.7 1-1.6 1-2.6 0-1.1-.4-2-1.1-2.7-.8-.8-1.6-1.1-2.7-1.1h-.1c-.3-1-.8-1.8-1.6-2.5s-1.8-1-2.8-1c-1.5-.1-2.7.4-3.6 1.5z" id="Shape" fill="#000"/></g></svg>