<svg class="ucla-icon partly-sunny" width="24" height="24" viewBox="0 0 24 24" aria-labelledby="icon-partly-sunny" role="img"><title id="icon-partly-sunny">Icon Weather/Partly Sunnny</title><g fill="none" fill-rule="evenodd"><path d="M2 13.336c0 .252.084.42.252.588a.763.763 0 0 0 .588.252H4.27c.252 0 .42-.084.588-.252a.763.763 0 0 0 .252-.588.763.763 0 0 0-.252-.588.763.763 0 0 0-.588-.252H2.84a.763.763 0 0 0-.588.252.763.763 0 0 0-.252.588zm1.513 5.21c0 .84.252 1.513.924 2.101.588.588 1.26.924 2.1.924h5.8c.84 0 1.512-.336 2.1-.84.588-.588.84-1.26.84-2.1 0-.42-.084-.757-.168-1.01a4.853 4.853 0 0 0 1.68-1.764c.421-.756.59-1.512.59-2.353 0-.672-.169-1.344-.421-1.933a5.383 5.383 0 0 0-1.092-1.596 5.383 5.383 0 0 0-1.597-1.093 4.985 4.985 0 0 0-1.933-.42c-.924 0-1.765.252-2.52.672-.757.42-1.345 1.093-1.85 1.85a5.134 5.134 0 0 0-.672 2.52v.252c-.84.505-1.428 1.177-1.68 2.101-.673.168-1.177.588-1.513 1.093-.42.336-.588.924-.588 1.596zm1.26-11.933c0 .253.084.42.252.589L6.37 8.63c.42.336.756.336 1.176 0a.763.763 0 0 0 .252-.588.763.763 0 0 0-.252-.588L6.202 6.109c-.252-.168-.42-.252-.673-.252a.763.763 0 0 0-.588.252c-.168.168-.168.336-.168.504zm.336 11.933c0-.336.084-.672.336-.924s.505-.42.84-.42l.505-.084a.18.18 0 0 0 .168-.168l.084-.505c.084-.504.252-.924.588-1.176.336-.336.757-.504 1.26-.504.505 0 .925.168 1.261.504.336.336.588.756.673 1.176l.084.505c.084.252.168.252.252.252h1.092c.336 0 .672.168.924.42.253.252.42.588.42.924 0 .42-.167.672-.42.925-.252.252-.588.42-.924.42H6.454c-.336 0-.672-.168-.925-.42-.252-.168-.42-.505-.42-.925zm3.782-5.378c.084-.924.42-1.68 1.092-2.353.672-.588 1.429-.924 2.353-.924.925 0 1.765.336 2.353 1.008a3.366 3.366 0 0 1 1.008 2.437c0 .588-.168 1.177-.42 1.597-.252.504-.672.924-1.176 1.26-.504-.42-1.093-.588-1.68-.588-.253-.756-.673-1.344-1.261-1.765a3.677 3.677 0 0 0-2.101-.672H8.89zm2.605-7.31c0 .251.084.42.252.587a.763.763 0 0 0 .588.252c.252 0 .42-.084.588-.252a.763.763 0 0 0 .252-.588V3.84a.763.763 0 0 0-.252-.588.763.763 0 0 0-.588-.252.763.763 0 0 0-.588.252.763.763 0 0 0-.252.588v2.017zM16.79 18.63c0 .252.084.42.252.588l1.345 1.345c.336.336.756.336 1.176 0a.763.763 0 0 0 .252-.588.763.763 0 0 0-.252-.588l-1.429-1.345c-.168-.168-.336-.168-.588-.168a.763.763 0 0 0-.588.252c-.084.084-.168.252-.168.504zm0-10.588c0 .252.084.42.252.588a.763.763 0 0 0 .588.252c.252 0 .42-.084.588-.252l1.345-1.428a.763.763 0 0 0 .252-.589c0-.252-.084-.42-.252-.504-.168-.084-.336-.252-.588-.252a.763.763 0 0 0-.588.252l-1.345 1.345a.763.763 0 0 0-.252.588zm2.1 5.294c0 .252.085.42.253.588a.763.763 0 0 0 .588.252h1.429c.252 0 .42-.084.588-.252a.763.763 0 0 0 .252-.588.763.763 0 0 0-.252-.588.763.763 0 0 0-.588-.252H19.73a.763.763 0 0 0-.588.252c-.084.168-.252.336-.252.588z" id="Shape" fill="#000"/></g></svg>