<svg class="ucla-icon partly-cloudy" width="24" height="24" viewBox="0 0 24 24" aria-labelledby="icon-partly-cloudy" role="img"><title id="icon-partly-cloudy">Icon Weather/Partly Cloudy</title><g fill="none" fill-rule="evenodd"><path d="M0 17.328c0 .806.18 1.523.627 2.24.448.716.895 1.253 1.612 1.611.716.358 1.433.627 2.239.627h9.671c.806 0 1.523-.18 2.24-.627.715-.448 1.253-.895 1.611-1.612.358-.716.627-1.433.627-2.239 0-.627-.09-1.164-.358-1.79.716-.807.985-1.792.985-2.956 0-.627-.09-1.254-.358-1.791-.27-.537-.538-1.075-.986-1.522-.447-.448-.895-.806-1.522-.985-.537-.27-1.164-.359-1.791-.359-1.343 0-2.507.538-3.493 1.523-.716-.358-1.522-.627-2.417-.627-1.254 0-2.329.358-3.314 1.164-.985.806-1.612 1.791-1.88 3.045-.986.269-1.792.716-2.418 1.522C.448 15.358 0 16.343 0 17.328zm1.522 0c0-.716.269-1.432.717-1.97.537-.537 1.164-.895 1.88-.985h.448c.09 0 .18-.09.18-.179l.089-.448c.09-.985.537-1.79 1.254-2.418.716-.627 1.522-.985 2.507-.985.985 0 1.88.358 2.597.985.716.627 1.164 1.433 1.254 2.418l.09.538c0 .09.089.179.178.179h1.433c.806 0 1.433.268 2.06.895.537.538.895 1.254.895 2.06s-.268 1.522-.895 2.06c-.537.537-1.254.895-2.06.895H4.39c-.807 0-1.434-.269-2.06-.895a3.209 3.209 0 0 1-.807-2.15zm6-11.015c0 .18.09.359.18.538l.626.537c.18.18.448.269.538.18.179 0 .358-.09.537-.27.18-.179.18-.358.18-.537 0-.179-.09-.268-.27-.358l-.537-.627c-.179-.179-.358-.179-.537-.179-.18 0-.358.09-.538.269a.684.684 0 0 0-.179.447zm4.747 4.03c.627-.627 1.343-.895 2.149-.895.895 0 1.612.268 2.239.895.627.627.895 1.344.895 2.24 0 .536-.179 1.074-.448 1.611-.895-.895-1.88-1.254-3.134-1.254h-.179c-.18-.985-.716-1.88-1.522-2.597zM13.7 5.597c0 .269.09.448.18.537.09.09.358.18.537.18.269 0 .448-.09.537-.18.18-.179.18-.358.18-.537v-1.88c0-.18-.09-.359-.18-.538C14.865 3 14.687 3 14.507 3c-.179 0-.358.09-.537.18-.179.089-.179.357-.179.536l-.09 1.881zm5.015 2.06c0 .268.09.447.18.537.179.18.358.18.537.18.179 0 .358-.09.537-.18l1.254-1.254c.179-.179.179-.358.179-.537 0-.18-.09-.358-.18-.537-.178-.18-.357-.18-.536-.18-.18 0-.359.09-.538.18l-1.343 1.253c-.09.09-.09.27-.09.538zm.627 10.567c0 .179.09.448.18.537l.537.538c.09.179.268.179.537.179s.358-.09.537-.18c.18-.089.18-.358.18-.537 0-.179-.09-.358-.18-.537l-.537-.537c-.18-.18-.358-.18-.537-.18-.18 0-.359.09-.538.18-.09.179-.179.358-.179.537zm1.344-5.642c0 .18.09.358.268.537.18.18.358.18.538.18h1.79c.18 0 .359-.09.538-.18.179-.09.179-.358.179-.537 0-.179-.09-.358-.18-.537-.089-.18-.357-.18-.536-.18h-1.791c-.18 0-.359.09-.538.18-.179.179-.268.358-.268.537z" id="Shape" fill="#000"/></g></svg>