<?xml version="1.0" encoding="UTF-8"?>
<svg width="24px" height="24px" viewBox="0 0 24 24" version="1.1" xmlns="http://www.w3.org/2000/svg" xmlns:xlink="http://www.w3.org/1999/xlink">
    <!-- Generator: Sketch 53.2 (72643) - https://sketchapp.com -->
    <title>Icon/Play</title>
    <desc>Created with Sketch.</desc>
    <g id="Icon/Play" stroke="none" stroke-width="1" fill="none" fill-rule="evenodd">
        <path d="M10,16.5 L16,12 L10,7.5 L10,16.5 Z M12,2 C6.48,2 2,6.48 2,12 C2,17.52 6.48,22 12,22 C17.52,22 22,17.52 22,12 C22,6.48 17.52,2 12,2 Z M12,20.5 C7.314375,20.5 3.5,16.685625 3.5,12 C3.5,7.314375 7.314375,3.5 12,3.5 C16.685625,3.5 20.5,7.314375 20.5,12 C20.5,16.685625 16.685625,20.5 12,20.5 Z" id="Shape" fill="#000000"></path>
    </g>
</svg>