<svg class="ucla-icon success" width="24" height="24" viewBox="0 0 24 24" aria-labelledby="icon-success" role="img"><title id="icon-success">Icon Success</title><g fill="none" fill-rule="evenodd"><g id="valid" transform="translate(2 2)" fill="#000"><path d="M10 20C4.477 20 0 15.523 0 10S4.477 0 10 0s10 4.477 10 10-4.477 10-10 10zm5.939-12.48L14.48 6.06a.208.208 0 0 0-.294 0l-5.061 5.062L6.814 8.81a.208.208 0 0 0-.295 0l-1.458 1.458a.208.208 0 0 0 0 .295l3.916 3.916a.208.208 0 0 0 .295 0l6.667-6.666a.208.208 0 0 0 0-.295z" id="Combined-Shape"/></g></g></svg>