<?xml version="1.0" encoding="UTF-8"?>
<svg width="24px" height="24px" viewBox="0 0 24 24" version="1.1" xmlns="http://www.w3.org/2000/svg" xmlns:xlink="http://www.w3.org/1999/xlink">
    <!-- Generator: Sketch 54.1 (76490) - https://sketchapp.com -->
    <title>Icon/Success</title>
    <desc>Created with Sketch.</desc>
    <g id="Icon/Success" stroke="none" stroke-width="1" fill="none" fill-rule="evenodd">
        <g id="valid" transform="translate(2.000000, 2.000000)" fill="#000000">
            <path d="M10,20 C4.4771525,20 0,15.5228475 0,10 C0,4.4771525 4.4771525,0 10,0 C15.5228475,0 20,4.4771525 20,10 C20,15.5228475 15.5228475,20 10,20 Z M15.9386569,7.51916126 L14.4803387,6.06084311 C14.3988813,5.97938563 14.267216,5.97938563 14.1857585,6.06084311 L9.12476953,11.1218321 L6.81374152,8.81080405 C6.73228404,8.72934657 6.60061874,8.72934657 6.51916126,8.81080405 L5.06084311,10.2691222 C4.97938563,10.3505797 4.97938563,10.482245 5.06084311,10.5637025 L8.9774794,14.4803387 C9.01810398,14.5209633 9.07143675,14.5413798 9.12476953,14.5413798 C9.17810231,14.5413798 9.23143509,14.5209633 9.27205966,14.4803387 L15.9386569,7.81374152 C16.0201144,7.73228404 16.0201144,7.60061874 15.9386569,7.51916126 Z" id="Combined-Shape"></path>
        </g>
    </g>
</svg>