<svg class="ucla-icon sun" width="24" height="24" viewBox="0 0 24 24" aria-labelledby="icon-sun" role="img"><title id="icon-sun">Icon Weather/Sun</title><g fill="none" fill-rule="evenodd"><path d="M12 16.667a4.667 4.667 0 1 1 0-9.334 4.667 4.667 0 0 1 0 9.334zm0-1.334a3.333 3.333 0 1 0 0-6.666 3.333 3.333 0 0 0 0 6.666zM12 4c.368 0 .667.298.667.667V6a.667.667 0 0 1-1.334 0V4.667c0-.369.299-.667.667-.667zm0 13.333c.368 0 .667.299.667.667v1.333a.667.667 0 0 1-1.334 0V18c0-.368.299-.667.667-.667zm3.805-1.528c.26-.26.682-.26.943 0l.942.943a.667.667 0 1 1-.942.942l-.943-.942a.667.667 0 0 1 0-.943zm-7.529 0c.26.26.26.682 0 .943l-.943.942a.667.667 0 1 1-.942-.942l.942-.943c.26-.26.683-.26.943 0zM6.666 12a.667.667 0 0 1-.666.667H4.667a.667.667 0 0 1 0-1.334H6c.368 0 .667.299.667.667zm9.139-3.643a.667.667 0 0 1 0-.943l.943-.943a.667.667 0 1 1 .942.943l-.942.943a.667.667 0 0 1-.943 0zm-7.529 0a.667.667 0 0 1-.943 0l-.942-.943a.667.667 0 1 1 .942-.943l.943.943c.26.26.26.683 0 .943zM20 12a.667.667 0 0 1-.667.667H18a.667.667 0 0 1 0-1.334h1.333c.369 0 .667.299.667.667z" id="Combined-Shape" fill="#000"/></g></svg>