<svg class="ucla-icon time-baseline" width="24" height="24" viewBox="0 0 24 24" aria-labelledby="icon-time-baseline" role="img"><title id="icon-time-baseline">Icon Time Baseline</title><g fill="none" fill-rule="evenodd"><path d="M11.991 1C16.968 1 21 5.032 21 10s-4.032 9-9.009 9C7.023 19 3 14.968 3 10s4.023-9 8.991-9zM12 17.2c3.978 0 7.2-3.222 7.2-7.2S15.978 2.8 12 2.8A7.198 7.198 0 0 0 4.8 10c0 3.978 3.222 7.2 7.2 7.2zm.45-11.7v4.725l4.05 2.403-.675 1.107L11.1 10.9V5.5h1.35z" id="Combined-Shape" fill="#000"/></g></svg>