<svg class="ucla-icon twitter" width="24" height="24" viewBox="0 0 24 24" aria-labelledby="icon-twitter" role="img"><title id="icon-twitter">Icon Social Twitter</title><g fill="none" fill-rule="evenodd"><path d="M20 6.54a6.563 6.563 0 0 1-1.885.516 3.292 3.292 0 0 0 1.443-1.816 6.573 6.573 0 0 1-2.085.797A3.283 3.283 0 0 0 11.88 9.03 9.32 9.32 0 0 1 5.115 5.6 3.281 3.281 0 0 0 6.13 9.984a3.266 3.266 0 0 1-1.487-.411v.041a3.285 3.285 0 0 0 2.633 3.219 3.289 3.289 0 0 1-1.483.056 3.286 3.286 0 0 0 3.067 2.28A6.587 6.587 0 0 1 4 16.528a9.29 9.29 0 0 0 5.032 1.475c6.038 0 9.34-5.002 9.34-9.34 0-.142-.004-.284-.01-.424A6.673 6.673 0 0 0 20 6.539" id="Shape" fill="#000"/></g></svg>