<svg class="ucla-icon youtube" width="24" height="24" viewBox="0 0 24 24" aria-labelledby="icon-youtube" role="img"><title id="icon-youtube">Icon Social YouTube</title><g fill="none" fill-rule="evenodd"><path d="M10.142 14.86L10.14 9.69l4.864 2.595-4.863 2.576zM20.82 8.793s-.175-1.269-.715-1.827c-.685-.733-1.452-.737-1.804-.78C15.782 6 12.004 6 12.004 6h-.008S8.218 6 5.7 6.186c-.352.043-1.119.047-1.804.78-.54.558-.715 1.827-.715 1.827S3 10.283 3 11.772v1.396c0 1.49.18 2.98.18 2.98s.176 1.268.715 1.826c.685.733 1.585.71 1.985.787 1.44.141 6.12.185 6.12.185s3.782-.006 6.301-.192c.352-.043 1.12-.047 1.804-.78.54-.558.715-1.827.715-1.827s.18-1.49.18-2.979v-1.396c0-1.49-.18-2.98-.18-2.98z" id="Shape" fill="#000"/></g></svg>